<svg width="35" height="34" viewBox="0 0 35 34" fill="none" xmlns="http://www.w3.org/2000/svg">
<path d="M17.4987 33.6673C15.1931 33.6673 13.0265 33.2298 10.9987 32.3548C8.97092 31.4798 7.20703 30.2923 5.70703 28.7923C4.20703 27.2923 3.01953 25.5284 2.14453 23.5007C1.26953 21.4729 0.832031 19.3062 0.832031 17.0007C0.832031 14.6951 1.26953 12.5284 2.14453 10.5007C3.01953 8.47287 4.20703 6.70898 5.70703 5.20898C7.20703 3.70898 8.97092 2.52148 10.9987 1.64648C13.0265 0.771484 15.1931 0.333984 17.4987 0.333984C19.8043 0.333984 21.9709 0.771484 23.9987 1.64648C26.0265 2.52148 27.7904 3.70898 29.2904 5.20898C30.7904 6.70898 31.9779 8.47287 32.8529 10.5007C33.7279 12.5284 34.1654 14.6951 34.1654 17.0007V19.4173C34.1654 21.0562 33.6029 22.452 32.4779 23.6048C31.3529 24.7576 29.9709 25.334 28.332 25.334C27.3598 25.334 26.4431 25.1257 25.582 24.709C24.7209 24.2923 23.9987 23.6951 23.4154 22.9173C22.6098 23.7229 21.7001 24.327 20.6862 24.7298C19.6723 25.1326 18.6098 25.334 17.4987 25.334C15.1931 25.334 13.2279 24.5215 11.6029 22.8965C9.97787 21.2715 9.16537 19.3062 9.16537 17.0007C9.16537 14.6951 9.97787 12.7298 11.6029 11.1048C13.2279 9.47982 15.1931 8.66732 17.4987 8.66732C19.8043 8.66732 21.7695 9.47982 23.3945 11.1048C25.0195 12.7298 25.832 14.6951 25.832 17.0007V19.4173C25.832 20.1395 26.0681 20.7507 26.5404 21.2507C27.0126 21.7507 27.6098 22.0007 28.332 22.0007C29.0543 22.0007 29.6515 21.7507 30.1237 21.2507C30.5959 20.7507 30.832 20.1395 30.832 19.4173V17.0007C30.832 13.2784 29.5404 10.1257 26.957 7.54232C24.3737 4.95898 21.2209 3.66732 17.4987 3.66732C13.7765 3.66732 10.6237 4.95898 8.04037 7.54232C5.45703 10.1257 4.16536 13.2784 4.16536 17.0007C4.16536 20.7229 5.45703 23.8757 8.04037 26.459C10.6237 29.0423 13.7765 30.334 17.4987 30.334H25.832V33.6673H17.4987ZM17.4987 22.0007C18.8876 22.0007 20.0681 21.5145 21.0404 20.5423C22.0126 19.5701 22.4987 18.3895 22.4987 17.0007C22.4987 15.6118 22.0126 14.4312 21.0404 13.459C20.0681 12.4868 18.8876 12.0007 17.4987 12.0007C16.1098 12.0007 14.9293 12.4868 13.957 13.459C12.9848 14.4312 12.4987 15.6118 12.4987 17.0007C12.4987 18.3895 12.9848 19.5701 13.957 20.5423C14.9293 21.5145 16.1098 22.0007 17.4987 22.0007Z" fill="white"/>
</svg>
