<svg width="392" height="288" viewBox="0 0 392 288" fill="none" xmlns="http://www.w3.org/2000/svg">
<path d="M375.926 254.62C375.926 254.707 295.362 254.77 196.009 254.77C96.6551 254.77 16.0703 254.707 16.0703 254.62C16.0703 254.534 96.6185 254.471 196.009 254.471C295.399 254.471 375.926 254.54 375.926 254.62Z" fill="#263238"/>
<path d="M151.625 22.0322H259.477V135.233C259.477 137.711 258.584 140.088 256.994 141.84C255.404 143.592 253.248 144.576 251 144.576H151.625V22.0322Z" fill="#EBEBEB"/>
<path d="M250.572 58.5049C250.572 58.7526 231.082 58.9542 207.039 58.9542C182.997 58.9542 163.496 58.7526 163.496 58.5049C163.496 58.2573 182.986 58.0557 207.039 58.0557C231.093 58.0557 250.572 58.2573 250.572 58.5049Z" fill="#455A64"/>
<path d="M207.552 66.8165C207.552 67.0641 197.924 67.2657 186.044 67.2657C174.164 67.2657 164.531 67.0641 164.531 66.8165C164.531 66.5688 174.164 66.3672 186.044 66.3672C197.924 66.3672 207.552 66.5573 207.552 66.8165Z" fill="#455A64"/>
<path d="M224.746 66.0391C224.746 66.2868 222.195 66.4884 219.049 66.4884C215.902 66.4884 213.352 66.2868 213.352 66.0391C213.352 65.7914 215.902 65.5898 219.049 65.5898C222.195 65.5898 224.746 65.7914 224.746 66.0391Z" fill="#455A64"/>
<path d="M252.898 65.5264C252.898 65.7741 247.849 65.9757 241.619 65.9757C235.389 65.9757 230.34 65.7741 230.34 65.5264C230.34 65.2787 235.389 65.0771 241.619 65.0771C247.849 65.0771 252.898 65.2787 252.898 65.5264Z" fill="#455A64"/>
<path d="M203.961 74.7481C203.961 75.0015 194.903 75.2031 183.729 75.2031C172.554 75.2031 163.496 75.0015 163.496 74.7481C163.496 74.4947 172.554 74.2988 183.729 74.2988C194.903 74.2988 203.961 74.5004 203.961 74.7481Z" fill="#455A64"/>
<path d="M252.896 74.5235C252.896 74.7712 243.007 74.9728 230.808 74.9728C218.609 74.9728 208.715 74.7712 208.715 74.5235C208.715 74.2758 218.604 74.0742 230.808 74.0742C243.012 74.0742 252.896 74.2701 252.896 74.5235Z" fill="#455A64"/>
<path d="M252.896 82.5175C252.896 82.7652 248.495 82.9668 243.059 82.9668C237.624 82.9668 233.223 82.7652 233.223 82.5175C233.223 82.2699 237.629 82.0625 243.059 82.0625C248.49 82.0625 252.896 82.2641 252.896 82.5175Z" fill="#455A64"/>
<path d="M212.204 49.6055C212.204 49.8532 201.531 50.0548 188.37 50.0548C175.209 50.0548 164.531 49.8532 164.531 49.6055C164.531 49.3579 175.204 49.1562 188.37 49.1562C201.536 49.1562 212.204 49.3579 212.204 49.6055Z" fill="#407BFF"/>
<path d="M278.514 90.6738H69.6934C65.4876 90.6738 62.0781 94.4312 62.0781 99.0662V245.56C62.0781 250.195 65.4876 253.953 69.6934 253.953H278.514C282.72 253.953 286.13 250.195 286.13 245.56V99.0662C286.13 94.4312 282.72 90.6738 278.514 90.6738Z" fill="#263238"/>
<path d="M53.0195 241.874H295.756V245.906C295.756 248.625 294.776 251.233 293.031 253.156C291.287 255.079 288.92 256.159 286.453 256.159H62.323C59.8556 256.159 57.4892 255.079 55.7445 253.156C53.9997 251.233 53.0195 248.625 53.0195 245.906V241.874Z" fill="#263238"/>
<path d="M279.795 97.1602H68.4023V235.049H279.795V97.1602Z" fill="#455A64"/>
<path d="M152.328 241.874H153.274H156.034L166.273 241.828L200.523 241.747H200.774L200.649 241.989L199.29 244.558L197.852 247.271L197.811 247.352H197.727L155.339 247.265H155.302V247.231L153.081 243.25L152.522 242.242L152.344 241.908C152.344 241.908 152.422 242.029 152.553 242.26L153.149 243.268C153.671 244.161 154.424 245.462 155.412 247.15L155.354 247.115L197.743 247.029L197.617 247.11L199.055 244.397L200.413 241.828L200.539 242.07L166.43 241.989L156.123 241.92H153.321H152.584L152.328 241.874Z" fill="#455A64"/>
<path d="M286.124 241.874C286.124 241.961 235.948 242.024 174.106 242.024C112.265 242.024 62.0781 241.961 62.0781 241.874C62.0781 241.788 112.223 241.725 174.106 241.725C235.99 241.725 286.124 241.794 286.124 241.874Z" fill="#455A64"/>
<path d="M228.928 69.6211C230.591 69.6211 232.186 70.3493 233.363 71.6456C234.539 72.9418 235.2 74.6999 235.2 76.5331V90.6854H216.488V77.616C216.488 76.5659 216.675 75.5259 217.039 74.5556C217.403 73.5852 217.938 72.7036 218.612 71.9611C219.285 71.2185 220.085 70.6296 220.966 70.2281C221.846 69.8266 222.79 69.6203 223.743 69.6211H228.928Z" fill="#263238"/>
<path d="M228.929 69.6211C228.929 69.7075 211.273 69.7536 189.494 69.7363C167.714 69.7191 150.059 69.6269 150.059 69.5463C150.059 69.4656 167.709 69.4138 189.494 69.4311C211.279 69.4483 228.929 69.5405 228.929 69.6211Z" fill="#263238"/>
<path d="M228.783 69.6045L220.974 69.5469L209.638 69.6218H126.356C122.96 69.6218 119.703 71.1086 117.301 73.7551C114.9 76.4016 113.551 79.991 113.551 83.7338V235.377H221.408V77.3574C221.727 69.6218 228.783 69.6045 228.783 69.6045Z" fill="#FAFAFA"/>
<path d="M228.781 69.604L163.746 69.7595H131.231H127.165C126.485 69.7595 125.816 69.7595 125.147 69.8228C124.482 69.9007 123.823 70.0335 123.177 70.2203C121.224 70.7753 119.422 71.8394 117.921 73.3231C116.42 74.8067 115.265 76.6663 114.553 78.7451C114.448 79.0964 114.302 79.4305 114.229 79.7876L113.983 80.859C113.855 81.5831 113.777 82.3166 113.748 83.0536C113.69 86.02 113.748 89.0209 113.748 92.0046L113.837 235.342L113.575 235.054L221.433 235.135L221.245 235.342L221.297 150.094L221.36 107.47L221.396 86.1582V80.8302V78.1633C221.381 77.7191 221.396 77.2743 221.443 76.8328C221.471 76.3894 221.536 75.9498 221.637 75.5195C221.973 73.759 222.908 72.2071 224.25 71.1822C224.913 70.6732 225.645 70.2843 226.419 70.0302C227.186 69.7752 227.98 69.6319 228.781 69.604ZM228.781 69.604C227.975 69.6432 227.177 69.8001 226.409 70.0705C225.636 70.325 224.906 70.7139 224.245 71.2225C222.912 72.2482 221.988 73.7988 221.663 75.554C221.563 75.9825 221.5 76.4202 221.475 76.8616C221.432 77.3034 221.418 77.7481 221.433 78.1921V86.1812L221.475 107.493L221.537 150.117L221.584 235.365V235.584H221.391L113.533 235.659H113.277V235.371L113.361 92.0334C113.361 89.044 113.361 86.066 113.398 83.0651C113.428 82.3089 113.508 81.5562 113.638 80.8129L113.899 79.7185C113.972 79.3499 114.124 79.0043 114.229 78.6472C114.961 76.5161 116.148 74.6105 117.689 73.0907C119.23 71.571 121.08 70.4819 123.083 69.915C123.747 69.7258 124.423 69.591 125.105 69.5118C125.79 69.4715 126.475 69.4312 127.149 69.4484H131.215H163.73L228.781 69.604Z" fill="#263238"/>
<path d="M129.801 96.9062H148.617L148.648 103.853H147.744C147.451 101.368 146.608 99.6864 145.214 98.807C144.115 98.2486 142.912 97.9785 141.702 98.0179V116.162C141.702 117.435 141.901 118.276 142.303 118.691C142.706 119.105 143.542 119.313 144.817 119.313V120.188H133.679V119.313C134.897 119.313 135.712 119.1 136.109 118.679C136.507 118.259 136.716 117.423 136.716 116.162V98.0179C135.506 97.9861 134.305 98.2558 133.203 98.807C131.709 99.7114 130.862 101.388 130.669 103.853H129.77L129.801 96.9062Z" fill="#407BFF"/>
<path d="M206.605 98.4962C206.605 98.7438 196.225 98.9454 183.42 98.9454C170.615 98.9454 160.234 98.7438 160.234 98.4962C160.234 98.2485 170.615 98.0469 183.42 98.0469C196.225 98.0469 206.605 98.2254 206.605 98.4962Z" fill="#407BFF"/>
<path d="M179.092 106.641C179.092 106.888 175.077 107.09 170.128 107.09C165.178 107.09 161.164 106.888 161.164 106.641C161.164 106.393 165.178 106.186 170.128 106.186C175.077 106.186 179.092 106.387 179.092 106.641Z" fill="#455A64"/>
<path d="M156.493 131.547C156.493 131.795 148.873 131.996 139.47 131.996C130.067 131.996 122.441 131.795 122.441 131.547C122.441 131.299 130.062 131.098 139.47 131.098C148.878 131.098 156.493 131.328 156.493 131.547Z" fill="#455A64"/>
<path d="M195.056 131.547C195.056 131.795 187.43 131.996 178.032 131.996C168.635 131.996 161.004 131.795 161.004 131.547C161.004 131.299 168.624 131.098 178.032 131.098C187.44 131.098 195.056 131.328 195.056 131.547Z" fill="#407BFF"/>
<path d="M156.493 138.2C156.493 138.448 148.873 138.65 139.47 138.65C130.067 138.65 122.441 138.448 122.441 138.2C122.441 137.953 130.062 137.751 139.47 137.751C148.878 137.751 156.493 137.953 156.493 138.2Z" fill="#455A64"/>
<path d="M156.493 144.852C156.493 145.1 148.873 145.302 139.47 145.302C130.067 145.302 122.441 145.1 122.441 144.852C122.441 144.605 130.062 144.397 139.47 144.397C148.878 144.397 156.493 144.576 156.493 144.852Z" fill="#407BFF"/>
<path d="M179.092 120.189C179.092 120.436 175.077 120.638 170.128 120.638C165.178 120.638 161.164 120.436 161.164 120.189C161.164 119.941 165.178 119.739 170.128 119.739C175.077 119.739 179.092 119.941 179.092 120.189Z" fill="#455A64"/>
<path d="M210.192 131.547C210.192 131.795 207.516 131.996 204.218 131.996C200.92 131.996 198.238 131.795 198.238 131.547C198.238 131.299 200.914 131.098 204.218 131.098C207.521 131.098 210.192 131.328 210.192 131.547Z" fill="#455A64"/>
<path d="M213.389 106.641C213.389 106.888 206.5 107.09 198.007 107.09C189.514 107.09 182.625 106.888 182.625 106.641C182.625 106.393 189.509 106.186 198.007 106.186C206.506 106.186 213.389 106.387 213.389 106.641Z" fill="#455A64"/>
<path d="M211.999 113.127C211.999 113.375 200.62 113.576 186.581 113.576C172.543 113.576 161.164 113.375 161.164 113.127C161.164 112.879 172.543 112.678 186.581 112.678C200.62 112.678 211.999 112.897 211.999 113.127Z" fill="#455A64"/>
<path d="M210.189 138.2C210.189 138.448 199.177 138.65 185.624 138.65C172.071 138.65 161.027 138.448 161.027 138.2C161.027 137.953 172.035 137.751 185.624 137.751C199.213 137.751 210.189 137.953 210.189 138.2Z" fill="#455A64"/>
<path d="M210.192 157.455C210.192 157.703 199.859 157.904 187.116 157.904C174.374 157.904 164.035 157.703 164.035 157.455C164.035 157.207 174.368 157.006 187.116 157.006C199.864 157.006 210.192 157.207 210.192 157.455Z" fill="#407BFF"/>
<path d="M210.192 163.93C210.192 164.177 199.859 164.379 187.116 164.379C174.374 164.379 164.035 164.177 164.035 163.93C164.035 163.682 174.368 163.48 187.116 163.48C199.864 163.48 210.192 163.682 210.192 163.93Z" fill="#455A64"/>
<path d="M210.192 170.404C210.192 170.652 199.859 170.854 187.116 170.854C174.374 170.854 164.035 170.652 164.035 170.404C164.035 170.157 174.368 169.955 187.116 169.955C199.864 169.955 210.192 170.157 210.192 170.404Z" fill="#455A64"/>
<path d="M210.192 176.878C210.192 177.126 199.859 177.327 187.116 177.327C174.374 177.327 164.035 177.126 164.035 176.878C164.035 176.63 174.368 176.429 187.116 176.429C199.864 176.429 210.192 176.63 210.192 176.878Z" fill="#455A64"/>
<path d="M190.606 183.353C190.606 183.474 189.117 183.589 186.712 183.669C184.308 183.75 180.963 183.802 177.304 183.802C173.646 183.802 170.311 183.75 167.896 183.669C165.482 183.589 164.008 183.474 164.008 183.353C164.008 183.232 165.492 183.116 167.896 183.036C170.301 182.955 173.646 182.903 177.304 182.903C180.963 182.903 184.293 182.955 186.712 183.036C189.132 183.116 190.606 183.226 190.606 183.353Z" fill="#455A64"/>
<path d="M201.828 145.198C201.828 145.446 192.943 145.648 181.967 145.648C170.991 145.648 162.105 145.446 162.105 145.198C162.105 144.951 170.991 144.749 181.967 144.749C192.943 144.749 201.828 144.951 201.828 145.198Z" fill="#455A64"/>
<path d="M155.689 158.187L158.14 208.161L113.802 214.278L113.766 157.761L155.689 158.187Z" fill="#E0E0E0"/>
<path d="M98.2794 154.724L97.9688 207.738L158.137 208.166L158.448 155.153L98.2794 154.724Z" fill="#F5F5F5"/>
<path d="M100.334 158.081L100.062 204.419L156.002 204.817L156.274 158.479L100.334 158.081Z" fill="#407BFF"/>
<g opacity="0.2">
<path d="M100.059 204.411L119.768 175.749L131.764 193.853L140.032 184.28L156.005 204.808L100.059 204.411Z" fill="black"/>
</g>
<g opacity="0.2">
<path d="M137.027 172.34C137.022 173.3 136.758 174.238 136.269 175.033C135.781 175.828 135.089 176.446 134.282 176.808C133.474 177.17 132.588 177.26 131.734 177.067C130.88 176.874 130.097 176.405 129.485 175.722C128.873 175.038 128.458 174.17 128.294 173.226C128.13 172.283 128.223 171.307 128.562 170.422C128.901 169.537 129.47 168.783 130.199 168.255C130.927 167.727 131.781 167.448 132.652 167.455C133.231 167.459 133.803 167.588 134.336 167.836C134.869 168.084 135.352 168.444 135.758 168.898C136.165 169.352 136.486 169.889 136.703 170.48C136.921 171.07 137.031 171.702 137.027 172.34Z" fill="black"/>
</g>
<path d="M163.931 220.666C163.931 220.869 163.876 221.067 163.774 221.236C163.672 221.404 163.527 221.536 163.357 221.613C163.187 221.691 163 221.711 162.819 221.671C162.639 221.632 162.473 221.534 162.343 221.391C162.213 221.248 162.124 221.065 162.088 220.866C162.052 220.667 162.071 220.461 162.141 220.274C162.212 220.086 162.331 219.926 162.484 219.813C162.637 219.701 162.817 219.641 163.001 219.641C163.123 219.64 163.244 219.666 163.358 219.717C163.471 219.768 163.574 219.844 163.66 219.939C163.747 220.035 163.815 220.148 163.862 220.273C163.908 220.397 163.932 220.531 163.931 220.666Z" fill="#263238"/>
<path d="M169.454 220.666C169.454 220.869 169.4 221.067 169.298 221.236C169.195 221.404 169.05 221.536 168.88 221.613C168.71 221.691 168.523 221.711 168.343 221.671C168.162 221.632 167.996 221.534 167.866 221.391C167.736 221.247 167.648 221.065 167.612 220.866C167.576 220.667 167.594 220.461 167.665 220.274C167.735 220.086 167.854 219.926 168.007 219.813C168.16 219.701 168.34 219.641 168.524 219.641C168.771 219.641 169.007 219.749 169.182 219.941C169.356 220.133 169.454 220.394 169.454 220.666Z" fill="#263238"/>
<path d="M174.974 220.666C174.974 220.869 174.919 221.067 174.817 221.236C174.715 221.404 174.57 221.536 174.4 221.613C174.23 221.691 174.043 221.711 173.862 221.671C173.682 221.632 173.516 221.534 173.386 221.391C173.256 221.247 173.167 221.065 173.131 220.866C173.095 220.667 173.114 220.461 173.184 220.274C173.255 220.086 173.374 219.926 173.527 219.813C173.68 219.701 173.86 219.641 174.044 219.641C174.29 219.641 174.527 219.749 174.701 219.941C174.876 220.133 174.974 220.394 174.974 220.666Z" fill="#263238"/>
<path d="M195.315 196.843C195.315 197.091 187.689 197.292 178.286 197.292C168.884 197.292 161.258 197.091 161.258 196.843C161.258 196.595 168.884 196.394 178.286 196.394C187.689 196.394 195.315 196.595 195.315 196.843Z" fill="#407BFF"/>
<path d="M210.451 203.495C210.451 203.743 199.439 203.944 185.855 203.944C172.27 203.944 161.258 203.743 161.258 203.495C161.258 203.247 172.27 203.046 185.855 203.046C199.439 203.046 210.451 203.247 210.451 203.495Z" fill="#455A64"/>
<path d="M319.93 215.325L319.641 247.259L355.882 247.658L356.172 215.725L319.93 215.325Z" fill="#F5F5F5"/>
<path d="M319.914 216.606L319.75 244.519L353.446 244.758L353.609 216.846L319.914 216.606Z" fill="#407BFF"/>
<path opacity="0.2" d="M319.742 244.506L331.612 227.243L338.84 238.147L343.821 232.381L353.438 244.748L319.742 244.506Z" fill="black"/>
<g opacity="0.2">
<path d="M342.013 225.216C342.011 225.795 341.853 226.36 341.56 226.84C341.266 227.32 340.85 227.694 340.363 227.913C339.877 228.132 339.343 228.187 338.828 228.072C338.313 227.956 337.841 227.675 337.472 227.263C337.102 226.852 336.851 226.329 336.751 225.76C336.652 225.192 336.707 224.604 336.911 224.07C337.114 223.536 337.457 223.081 337.896 222.762C338.334 222.443 338.849 222.275 339.374 222.278C340.077 222.283 340.75 222.595 341.245 223.146C341.74 223.696 342.016 224.441 342.013 225.216Z" fill="black"/>
</g>
<path d="M313.363 211.247L313.176 243.18L349.417 243.438L349.604 211.505L313.363 211.247Z" fill="#F5F5F5"/>
<path d="M314.605 213.266L314.441 241.179L348.137 241.419L348.301 213.506L314.605 213.266Z" fill="#407BFF"/>
<path opacity="0.2" d="M314.426 241.171L326.296 223.908L333.524 234.812L338.505 229.046L348.122 241.413L314.426 241.171Z" fill="black"/>
<g opacity="0.2">
<path d="M336.697 221.858C336.694 222.438 336.534 223.004 336.239 223.483C335.943 223.963 335.525 224.335 335.037 224.553C334.549 224.77 334.014 224.823 333.499 224.704C332.984 224.586 332.512 224.301 332.144 223.887C331.776 223.472 331.528 222.946 331.432 222.376C331.335 221.806 331.395 221.217 331.603 220.685C331.81 220.152 332.157 219.699 332.599 219.384C333.041 219.069 333.557 218.905 334.084 218.914C334.783 218.927 335.45 219.243 335.94 219.794C336.429 220.345 336.701 221.087 336.697 221.858Z" fill="black"/>
</g>
<path d="M308.632 208.499L308.445 240.432L344.686 240.69L344.873 208.757L308.632 208.499Z" fill="#F5F5F5"/>
<path d="M309.871 210.512L309.707 238.425L343.403 238.665L343.566 210.752L309.871 210.512Z" fill="#407BFF"/>
<path opacity="0.2" d="M309.695 238.418L321.565 221.149L328.794 232.059L333.769 226.287L343.392 238.654L309.695 238.418Z" fill="black"/>
<g opacity="0.2">
<path d="M331.963 219.099C331.959 219.679 331.8 220.245 331.504 220.725C331.209 221.204 330.791 221.577 330.303 221.794C329.815 222.011 329.279 222.064 328.764 221.946C328.249 221.827 327.778 221.542 327.41 221.128C327.042 220.713 326.794 220.188 326.697 219.617C326.601 219.047 326.66 218.459 326.868 217.926C327.076 217.393 327.423 216.94 327.865 216.625C328.306 216.31 328.823 216.147 329.349 216.156C330.049 216.168 330.716 216.484 331.205 217.035C331.695 217.586 331.967 218.328 331.963 219.099Z" fill="black"/>
</g>
<path d="M304.509 212.649L304.219 244.582L340.46 244.981L340.75 213.048L304.509 212.649Z" fill="#F5F5F5"/>
<path d="M304.558 213.944L304.395 241.856L338.09 242.096L338.254 214.184L304.558 213.944Z" fill="#455A64"/>
<path opacity="0.2" d="M304.379 241.851L316.249 224.582L323.477 235.486L328.453 229.72L338.075 242.087L304.379 241.851Z" fill="black"/>
<g opacity="0.2">
<path d="M326.666 222.532C326.663 223.112 326.503 223.677 326.208 224.157C325.912 224.637 325.494 225.009 325.006 225.227C324.518 225.444 323.983 225.497 323.467 225.378C322.952 225.26 322.481 224.975 322.113 224.56C321.745 224.146 321.497 223.62 321.4 223.05C321.304 222.48 321.363 221.891 321.571 221.358C321.779 220.826 322.126 220.373 322.568 220.058C323.009 219.743 323.526 219.579 324.052 219.588C324.753 219.597 325.422 219.912 325.911 220.464C326.401 221.016 326.673 221.76 326.666 222.532Z" fill="black"/>
</g>
<path d="M360.469 223.793H339.547V254.626H360.469V223.793Z" fill="#263238"/>
<path d="M299.488 223.793V254.62H341.302V223.793H299.488ZM324.864 231.085H315.978C315.468 231.085 314.979 230.862 314.618 230.464C314.258 230.067 314.055 229.528 314.055 228.965C314.055 228.403 314.258 227.864 314.618 227.467C314.979 227.069 315.468 226.846 315.978 226.846H324.864C325.374 226.846 325.863 227.069 326.224 227.467C326.585 227.864 326.787 228.403 326.787 228.965C326.787 229.528 326.585 230.067 326.224 230.464C325.863 230.862 325.374 231.085 324.864 231.085Z" fill="#407BFF"/>
<path d="M272.336 251.402L233.424 248.775C233.178 248.159 233.016 247.802 233.016 247.802L222.468 248.038L219.034 247.802L218.899 248.113L183.493 248.89C176.432 248.89 169.01 253.637 169.01 259.702C168.921 265.462 171.461 271.74 177.786 271.596L226.023 271.418L274.265 271.596C280.589 271.74 282.261 267.564 282.272 262.547C283.009 253.262 277.73 251.477 272.336 251.402Z" fill="#455A64"/>
<path d="M182.211 271.601H182.441H183.126L185.739 271.573L195.45 271.526L227.855 271.48L227.72 271.636C227.652 270.484 227.584 269.222 227.51 267.967C227.364 265.398 227.223 262.863 227.087 260.479L227.207 260.617L197.363 256.896L188.52 255.784L186.136 255.468L185.519 255.381C185.45 255.375 185.382 255.361 185.316 255.341H185.525L186.141 255.404L188.53 255.663L197.384 256.689L227.233 260.248H227.343V260.369C227.484 262.777 227.625 265.306 227.772 267.857C227.845 269.113 227.913 270.363 227.981 271.526V271.688H227.84L195.434 271.636L185.723 271.59H183.11H182.425L182.211 271.601Z" fill="#263238"/>
<path d="M192.159 256.349C192.127 256.39 191.636 255.958 190.795 255.387C189.686 254.644 188.495 254.063 187.251 253.659C186.004 253.268 184.716 253.059 183.42 253.037C182.427 253.037 181.81 253.106 181.805 253.037C181.942 252.977 182.086 252.94 182.233 252.928C182.626 252.861 183.022 252.822 183.42 252.813C186.075 252.727 188.689 253.555 190.899 255.18C191.232 255.422 191.549 255.687 191.85 255.975C192.059 256.211 192.169 256.32 192.159 256.349Z" fill="#263238"/>
<path d="M269.313 254.068C269.313 254.149 261.656 256.194 252.175 258.636C242.694 261.078 234.984 262.991 234.969 262.91C234.953 262.829 242.626 260.785 252.112 258.342C261.599 255.9 269.298 254.017 269.313 254.068Z" fill="#263238"/>
<path d="M262.83 253.238C261.779 253.65 260.77 254.183 259.82 254.828C258.924 255.558 258.105 256.397 257.379 257.328C257.495 256.98 257.673 256.661 257.902 256.389C258.917 254.985 260.298 253.956 261.858 253.44C262.169 253.309 262.498 253.241 262.83 253.238Z" fill="#263238"/>
<path d="M248.34 204.55L260.67 228.2C261.419 229.638 261.834 231.258 261.877 232.915C261.92 234.573 261.589 236.216 260.915 237.699C260.138 239.409 258.934 240.84 257.444 241.823C255.954 242.805 254.241 243.299 252.506 243.245L233.575 242.669L233.078 235.084L249.746 231.553L238.509 210.114L248.34 204.55Z" fill="#FFBE9D"/>
<path d="M202.398 245.02L219.803 250.1L220.185 244.34L204.144 234.076L215.862 210.114L206.031 204.55L193.701 228.2C193.001 229.633 192.596 231.219 192.515 232.844C192.434 234.469 192.68 236.094 193.234 237.602C193.788 239.111 194.637 240.466 195.72 241.572C196.804 242.678 198.095 243.507 199.503 244L202.398 245.02Z" fill="#FFBE9D"/>
<path d="M243.108 219.733L255.004 212.821C253.54 209.551 251.835 206.418 249.908 203.455C246.223 197.839 240.5 193.917 234.019 192.419L220.335 192.598C218.664 192.76 217.021 193.177 215.453 193.836V193.778C208.026 195.581 199.773 213.431 199.773 213.431L210.634 219.716L210.875 221.593C211.193 224.082 212.176 226.409 213.697 228.281L210.561 251.131L245.653 251.931L241.195 235.584L243.108 219.733Z" fill="#407BFF"/>
<path d="M214.008 228.408C213.817 228.288 213.641 228.141 213.485 227.97C213.034 227.533 212.632 227.038 212.288 226.495C211.16 224.669 210.641 222.469 210.819 220.269C210.997 219.093 211.266 217.937 211.624 216.813C211.938 215.77 212.262 214.849 212.539 214.077C212.816 213.305 213.062 212.689 213.229 212.268C213.305 212.042 213.407 211.827 213.532 211.629C213.484 211.864 213.416 212.094 213.328 212.314C213.166 212.804 212.962 213.42 212.717 214.152C212.471 214.883 212.163 215.88 211.865 216.899C211.521 218.014 211.262 219.158 211.091 220.321C211.004 221.483 211.105 222.653 211.389 223.777C211.614 224.701 211.967 225.581 212.435 226.386C212.907 227.107 213.433 227.783 214.008 228.408Z" fill="#263238"/>
<path d="M208.736 256.648L206.75 231.16H249.551L246.713 256.965L208.736 256.648Z" fill="#263238"/>
<path d="M230.879 244.754C230.88 245.349 230.72 245.931 230.421 246.427C230.121 246.922 229.695 247.308 229.197 247.536C228.698 247.765 228.149 247.825 227.619 247.709C227.089 247.593 226.603 247.307 226.221 246.886C225.839 246.465 225.579 245.929 225.474 245.345C225.369 244.761 225.423 244.156 225.631 243.606C225.838 243.057 226.188 242.587 226.638 242.257C227.087 241.927 227.615 241.752 228.155 241.753C228.878 241.753 229.57 242.069 230.081 242.632C230.592 243.195 230.879 243.958 230.879 244.754Z" fill="#FAFAFA"/>
<path d="M227.402 261.625L234.673 262.742V271.452L227.988 271.261L227.402 261.625Z" fill="#FFBE9D"/>
<path d="M234.677 262.743H237.944C238.579 262.743 239.203 262.928 239.752 263.279L241.472 264.385C242.445 264.979 243.45 265.506 244.482 265.963C246.468 266.666 249.808 267.616 250.514 268.215C252.521 269.943 251.909 271.942 250.807 272.149C249.84 272.339 234.672 271.458 234.672 271.458L234.677 262.743Z" fill="#407BFF"/>
<path d="M240.035 270.72C239.782 269.999 239.663 269.229 239.685 268.456C239.615 267.679 239.693 266.894 239.915 266.152C239.968 266.907 239.981 267.665 239.957 268.422C240.024 269.185 240.05 269.953 240.035 270.72Z" fill="#263238"/>
<path d="M241.589 270.68C241.419 269.302 241.429 267.903 241.621 266.527C241.747 267.211 241.788 267.911 241.741 268.607C241.778 269.302 241.727 270 241.589 270.68Z" fill="#263238"/>
<path d="M243.416 271.026C243.134 269.622 243.032 268.181 243.113 266.746C243.297 267.437 243.393 268.152 243.4 268.872C243.494 269.585 243.5 270.31 243.416 271.026Z" fill="#263238"/>
<path d="M238.622 268.416C238.389 268.382 238.163 268.304 237.953 268.186C237.359 267.911 236.807 267.536 236.317 267.074C236.166 266.93 236.009 266.769 235.852 266.59C235.676 266.408 235.534 266.188 235.434 265.945C235.377 265.799 235.356 265.64 235.373 265.482C235.389 265.325 235.443 265.174 235.528 265.047C235.629 264.912 235.773 264.825 235.931 264.805C236.08 264.787 236.232 264.804 236.375 264.857C236.944 265.082 237.445 265.478 237.822 266C238.198 266.522 238.435 267.149 238.506 267.811C238.577 268.474 238.48 269.144 238.224 269.749C237.969 270.353 237.565 270.867 237.06 271.233C236.834 271.412 236.578 271.539 236.307 271.607C236.168 271.644 236.023 271.644 235.884 271.607C235.812 271.581 235.745 271.539 235.689 271.484C235.632 271.428 235.586 271.361 235.554 271.285C235.508 271.148 235.492 271.002 235.508 270.857C235.525 270.713 235.573 270.575 235.648 270.455C235.762 270.243 235.903 270.049 236.066 269.879C236.531 269.385 237.078 268.994 237.676 268.727C237.888 268.615 238.116 268.544 238.351 268.52C238.351 268.52 238.121 268.624 237.718 268.837C237.153 269.138 236.64 269.545 236.202 270.041C236.056 270.192 235.931 270.367 235.831 270.559C235.778 270.647 235.743 270.747 235.729 270.852C235.716 270.956 235.724 271.063 235.753 271.164C235.806 271.258 235.887 271.329 235.982 271.365C236.078 271.401 236.181 271.399 236.276 271.36C236.511 271.293 236.733 271.178 236.929 271.02C237.391 270.679 237.759 270.205 237.992 269.648C238.226 269.092 238.315 268.476 238.251 267.867C238.186 267.258 237.971 266.681 237.628 266.199C237.285 265.716 236.828 265.347 236.307 265.133C236.212 265.082 236.106 265.063 236.001 265.079C235.897 265.096 235.799 265.147 235.722 265.225C235.662 265.317 235.625 265.424 235.614 265.536C235.603 265.648 235.618 265.761 235.659 265.865C235.858 266.274 236.13 266.634 236.458 266.924C237.108 267.539 237.837 268.041 238.622 268.416Z" fill="#263238"/>
<path d="M250.808 272.143C250.973 271.981 251.108 271.786 251.205 271.567C251.3 271.267 251.331 270.946 251.293 270.631C251.256 270.316 251.152 270.015 250.991 269.752C250.52 268.947 249.805 268.353 248.973 268.076C248.048 267.707 246.95 267.535 245.837 267.149C243.934 266.52 242.118 265.609 240.438 264.442C239.8 263.992 239.304 263.589 238.969 263.29C238.787 263.151 238.62 262.988 238.473 262.806C238.67 262.914 238.857 263.044 239.032 263.192C239.382 263.451 239.889 263.825 240.542 264.251C242.232 265.355 244.036 266.229 245.915 266.855C247.008 267.229 248.1 267.431 249.051 267.805C249.927 268.118 250.67 268.771 251.142 269.643C251.307 269.935 251.406 270.266 251.43 270.609C251.453 270.952 251.401 271.297 251.278 271.613C251.195 271.775 251.081 271.914 250.943 272.022C250.881 272.125 250.813 272.154 250.808 272.143Z" fill="#263238"/>
<path d="M245.857 198.68C245.864 198.722 245.864 198.765 245.857 198.807V199.164C245.831 199.498 245.789 199.965 245.742 200.558C245.627 201.796 245.465 203.565 245.267 205.788V205.921L245.157 205.857L238.812 202.177L238.963 202.13L235.535 208.513L235.461 208.645L235.346 208.553L229.597 203.674H229.764L227.25 205.846L223.822 208.801L223.696 208.91L223.623 208.754L220.356 202.102L220.518 202.159L213.598 205.558L213.468 205.621V205.471L212.422 198.686L212.527 198.755L208.544 200.449L207.499 200.875L207.227 200.984L207.133 201.013C207.133 201.013 207.159 201.013 207.216 200.961L207.483 200.834L208.528 200.362L212.464 198.634L212.553 198.6V198.703C212.861 200.593 213.227 202.868 213.65 205.477L213.504 205.391L220.409 201.935L220.518 201.883L220.576 201.992C221.621 204.1 222.708 206.324 223.853 208.645L223.649 208.599L227.078 205.638L229.592 203.467L229.675 203.398L229.759 203.467L235.508 208.357L235.32 208.397L238.775 202.061L238.827 201.963L238.921 202.015L245.193 205.736L245.073 205.805L245.627 200.587C245.695 200.011 245.747 199.533 245.784 199.199C245.784 199.055 245.821 198.939 245.831 198.842C245.836 198.787 245.845 198.733 245.857 198.68Z" fill="#F5F5F5"/>
<path d="M250.937 205.097C250.934 205.154 250.926 205.21 250.911 205.264C250.88 205.391 250.843 205.552 250.801 205.754C250.692 206.197 250.545 206.831 250.352 207.637C249.949 209.296 249.364 211.669 248.643 214.647L248.611 214.762L248.517 214.71L241.143 210.817L241.289 210.771C239.402 213.731 237.311 217.02 235.08 220.534L234.986 220.678L234.876 220.551L228.928 213.881L227.673 212.481H227.841L219.802 218.04L219.687 218.12L219.619 217.994L215.281 209.55L215.417 209.607L207.148 212.746L207.07 212.775L207.044 212.689C206.26 210.189 205.638 208.202 205.209 206.825C205.005 206.157 204.843 205.633 204.734 205.264C204.681 205.097 204.645 204.965 204.613 204.861C204.596 204.817 204.586 204.77 204.582 204.723C204.605 204.764 204.623 204.808 204.634 204.855L204.775 205.247C204.896 205.615 205.068 206.128 205.298 206.79C205.742 208.161 206.39 210.137 207.206 212.631L207.101 212.574L215.339 209.388L215.427 209.354L215.474 209.446L219.839 217.867L219.656 217.815L227.694 212.245L227.783 212.182L227.862 212.268C228.276 212.737 228.694 213.203 229.116 213.668L235.08 220.344H234.876L241.116 210.604L241.169 210.517L241.258 210.563L248.606 214.515L248.486 214.578L250.274 207.591L250.765 205.719C250.822 205.523 250.864 205.362 250.901 205.241C250.908 205.192 250.92 205.143 250.937 205.097Z" fill="#F5F5F5"/>
<path d="M245.654 164.915C244.606 165.036 243.546 164.918 242.541 164.568C241.535 164.218 240.606 163.644 239.811 162.882C241.713 163.941 244.248 162.484 244.923 160.255C245.597 158.026 245.043 153.873 243.381 152.398C242.582 151.698 241.648 151.211 240.651 150.976C239.653 150.74 238.62 150.761 237.631 151.039C235.671 151.615 233.596 154.904 232.953 157.024L232.99 157.087C232.692 156.955 232.384 156.834 232.081 156.718C229.912 155.873 227.601 155.565 225.312 155.814C223.017 156.076 220.854 157.126 219.129 158.815L232.42 182.356C234.835 182.126 236.973 180.329 238.238 178.053C239.502 175.778 239.989 173.065 240.109 170.398C240.14 169.724 240.135 169.051 240.109 168.377L244.379 169.131C243.613 167.998 242.648 167.046 241.541 166.332C242.273 166.621 243.071 166.639 243.813 166.383C244.555 166.127 245.202 165.612 245.654 164.915Z" fill="#263238"/>
<path d="M228.866 201.451C230.601 201.41 232.254 200.628 233.475 199.269C234.696 197.911 235.39 196.082 235.41 194.17L235.719 164.88C235.734 164.295 235.547 163.726 235.196 163.287C234.845 162.849 234.355 162.574 233.826 162.519L222.6 159.391C218.998 158.976 216.615 163.849 216.385 167.824C216.134 172.242 215.983 177.644 216.458 180.945C217.415 187.569 222.025 188.433 222.025 188.433C222.025 188.433 222.025 190.996 222.025 194.135C222.029 195.113 222.209 196.08 222.556 196.98C222.902 197.88 223.408 198.695 224.043 199.378C224.679 200.06 225.431 200.597 226.256 200.955C227.082 201.314 227.964 201.488 228.851 201.468L228.866 201.451Z" fill="#FFBE9D"/>
<path d="M218.715 172.115C218.713 172.338 218.791 172.552 218.93 172.712C219.07 172.872 219.261 172.966 219.462 172.974C219.56 172.982 219.659 172.969 219.752 172.935C219.846 172.901 219.932 172.847 220.006 172.775C220.08 172.704 220.14 172.617 220.184 172.519C220.227 172.422 220.251 172.316 220.257 172.207C220.26 171.986 220.183 171.772 220.045 171.611C219.906 171.451 219.716 171.357 219.515 171.349C219.416 171.341 219.317 171.354 219.224 171.388C219.13 171.422 219.043 171.476 218.969 171.547C218.894 171.619 218.834 171.706 218.79 171.803C218.746 171.901 218.721 172.007 218.715 172.115Z" fill="#263238"/>
<path d="M217.43 170.635C217.524 170.75 218.109 170.272 218.94 170.272C219.771 170.272 220.378 170.733 220.466 170.623C220.555 170.514 220.414 170.37 220.148 170.157C219.787 169.886 219.361 169.741 218.925 169.742C218.492 169.741 218.071 169.892 217.722 170.174C217.487 170.387 217.43 170.589 217.43 170.635Z" fill="#263238"/>
<path d="M226.613 172.115C226.611 172.337 226.687 172.552 226.827 172.713C226.967 172.874 227.159 172.967 227.361 172.973C227.459 172.982 227.558 172.969 227.652 172.935C227.745 172.901 227.832 172.846 227.907 172.775C227.981 172.704 228.042 172.617 228.085 172.519C228.129 172.422 228.155 172.316 228.16 172.207C228.162 171.985 228.085 171.771 227.945 171.61C227.805 171.45 227.615 171.356 227.413 171.349C227.315 171.339 227.215 171.352 227.121 171.386C227.027 171.419 226.94 171.473 226.866 171.545C226.791 171.616 226.73 171.704 226.687 171.802C226.644 171.9 226.619 172.006 226.613 172.115Z" fill="#263238"/>
<path d="M225.61 170.807C225.704 170.916 226.29 170.444 227.121 170.444C227.952 170.444 228.558 170.905 228.647 170.79C228.736 170.674 228.595 170.542 228.328 170.329C227.969 170.055 227.542 169.91 227.105 169.914C226.673 169.911 226.252 170.061 225.903 170.34C225.647 170.559 225.563 170.755 225.61 170.807Z" fill="#263238"/>
<path d="M222.594 177.593C222.157 177.442 221.704 177.351 221.246 177.322C221.037 177.322 220.838 177.253 220.802 177.092C220.782 176.851 220.831 176.609 220.943 176.4L221.57 174.621C222.438 172.092 223.07 170.013 222.976 169.972C222.882 169.932 222.103 171.954 221.23 174.488L220.629 176.274C220.499 176.556 220.46 176.879 220.519 177.19C220.549 177.273 220.596 177.348 220.657 177.408C220.718 177.468 220.791 177.512 220.869 177.535C220.987 177.57 221.108 177.587 221.23 177.587C221.683 177.653 222.141 177.655 222.594 177.593Z" fill="#263238"/>
<path d="M222.023 188.415C224.855 188.463 227.644 187.643 230.078 186.048C230.078 186.048 228.123 190.598 222.102 189.976L222.023 188.415Z" fill="#EB996E"/>
<path d="M222.951 179.793C223.108 179.575 223.314 179.404 223.548 179.297C223.782 179.19 224.037 179.151 224.289 179.182C224.473 179.203 224.651 179.265 224.813 179.364C224.974 179.463 225.116 179.597 225.229 179.758C225.341 179.91 225.407 180.096 225.419 180.291C225.431 180.486 225.389 180.68 225.297 180.847C225.164 181.011 224.989 181.127 224.796 181.182C224.602 181.236 224.399 181.226 224.21 181.152C223.825 180.995 223.47 180.759 223.165 180.455C223.071 180.383 222.991 180.291 222.93 180.185C222.899 180.134 222.883 180.075 222.883 180.015C222.883 179.954 222.899 179.895 222.93 179.845" fill="#EB996E"/>
<path d="M225.039 178.221C224.903 178.221 224.903 179.206 224.13 179.914C223.356 180.623 222.4 180.49 222.395 180.646C222.389 180.801 222.609 180.842 223.011 180.853C223.542 180.854 224.056 180.65 224.464 180.277C224.856 179.923 225.107 179.415 225.165 178.86C225.201 178.463 225.097 178.221 225.039 178.221Z" fill="#263238"/>
<path d="M225.235 169.206C225.319 169.453 226.145 169.338 227.122 169.465C228.099 169.592 228.883 169.885 229.009 169.666C229.066 169.557 228.93 169.327 228.617 169.09C228.192 168.795 227.712 168.61 227.213 168.55C226.715 168.489 226.21 168.553 225.737 168.739C225.381 168.895 225.198 169.09 225.235 169.206Z" fill="#263238"/>
<path d="M217.568 168.947C217.714 169.155 218.284 168.947 218.974 168.947C219.663 168.947 220.244 169.091 220.374 168.872C220.437 168.763 220.343 168.556 220.087 168.36C219.749 168.118 219.35 167.999 218.947 168.02C218.542 168.028 218.149 168.175 217.824 168.44C217.583 168.636 217.505 168.849 217.568 168.947Z" fill="#263238"/>
<path d="M235.048 173.117C235.291 172.972 235.566 172.904 235.842 172.919C236.119 172.934 236.386 173.033 236.616 173.203C237.171 173.561 237.598 174.119 237.823 174.783C238.048 175.447 238.058 176.176 237.852 176.848C237.645 177.519 237.235 178.091 236.689 178.467C236.144 178.843 235.498 179 234.859 178.912" fill="#FFBE9D"/>
<path d="M235.472 176.936C235.472 176.89 235.702 176.988 235.994 176.844C236.176 176.731 236.322 176.561 236.416 176.356C236.509 176.151 236.544 175.92 236.517 175.692C236.516 175.465 236.455 175.244 236.341 175.055C236.226 174.867 236.064 174.72 235.874 174.632C235.571 174.494 235.352 174.563 235.352 174.511C235.352 174.459 235.555 174.304 235.953 174.402C236.182 174.462 236.388 174.604 236.538 174.805C236.72 175.052 236.824 175.357 236.836 175.675C236.868 175.965 236.811 176.258 236.675 176.508C236.538 176.759 236.33 176.952 236.083 177.057C235.66 177.19 235.44 176.959 235.472 176.936Z" fill="#EB996E"/>
<path d="M237.114 178.278C237.114 178.278 237.218 178.341 237.391 178.491L238.128 179.136L240.741 181.567L240.83 181.647L240.757 181.745C239.79 183.024 238.713 184.625 237.506 186.296C237.229 186.676 236.957 187.045 236.69 187.39L236.466 187.678V187.298C236.361 184.602 236.272 182.212 236.225 180.495C236.225 179.683 236.194 179.004 236.183 178.479C236.163 178.234 236.163 177.987 236.183 177.742C236.236 177.982 236.264 178.227 236.267 178.474C236.298 178.998 236.34 179.672 236.392 180.49C236.486 182.218 236.601 184.585 236.722 187.287L236.486 187.194L237.291 186.111C238.499 184.441 239.586 182.851 240.579 181.578V181.757L238.044 179.246L237.344 178.56C237.258 178.476 237.181 178.381 237.114 178.278Z" fill="#455A64"/>
<path d="M224.952 156.494C223.477 156.509 222.008 156.686 220.566 157.024C219.116 157.366 217.795 158.186 216.777 159.374C216.276 159.973 215.918 160.7 215.736 161.489C215.553 162.279 215.552 163.106 215.732 163.896C215.937 164.678 216.38 165.358 216.986 165.824C217.592 166.29 218.324 166.512 219.061 166.453C220.169 166.292 221.23 165.388 222.302 165.745C223.373 166.102 223.87 167.444 224.915 167.657C225.96 167.87 226.854 166.851 227.889 166.747C229.039 166.637 230.032 167.674 230.544 168.815C231.056 169.955 231.25 171.234 231.762 172.369C231.904 172.747 232.117 173.087 232.387 173.367C232.657 173.647 232.979 173.86 233.33 173.993C233.662 174.068 234.005 174.055 234.331 173.955C234.657 173.855 234.957 173.67 235.206 173.417C235.697 172.9 236.073 172.266 236.304 171.562C236.847 170.091 237.074 168.501 236.967 166.917C236.86 165.333 236.422 163.798 235.687 162.431C234.952 161.064 233.94 159.904 232.731 159.04C231.521 158.176 230.147 157.632 228.715 157.45" fill="#263238"/>
<path d="M239.606 163.532C239.559 163.532 239.418 162.997 239.052 162.184C238.07 160.067 236.411 158.425 234.395 157.576C233.627 157.254 233.12 157.156 233.125 157.104C233.13 157.052 233.261 157.104 233.491 157.104C233.821 157.154 234.146 157.237 234.463 157.352C235.512 157.734 236.478 158.354 237.296 159.172C238.119 159.986 238.776 160.984 239.225 162.098C239.363 162.431 239.471 162.779 239.549 163.135C239.588 163.263 239.607 163.397 239.606 163.532Z" fill="#407BFF"/>
<path d="M244.206 153.827C243.737 153.617 243.252 153.452 242.758 153.331C241.556 153.106 240.321 153.308 239.23 153.907C238.148 154.53 237.215 155.426 236.507 156.522C235.948 157.358 235.686 157.939 235.645 157.916C235.669 157.764 235.719 157.617 235.791 157.484C235.951 157.109 236.136 156.747 236.345 156.401C237.034 155.233 237.987 154.282 239.11 153.642C240.239 153.013 241.53 152.828 242.768 153.118C243.143 153.206 243.504 153.354 243.84 153.556C244.086 153.706 244.216 153.792 244.206 153.827Z" fill="#455A64"/>
<path d="M238.424 161.608C238.491 162.06 238.491 162.521 238.424 162.974C238.319 164.071 238.065 165.144 237.671 166.159C237.28 167.172 236.751 168.114 236.103 168.952C235.851 169.315 235.546 169.629 235.199 169.88C236.097 168.715 236.851 167.426 237.441 166.044C237.941 164.618 238.271 163.127 238.424 161.608Z" fill="#455A64"/>
<path d="M238.599 161.753C238.669 161.869 238.718 161.998 238.746 162.133C238.854 162.487 238.933 162.852 238.981 163.222C239.151 164.453 239.096 165.709 238.819 166.917C238.543 168.125 238.051 169.259 237.371 170.255C237.168 170.555 236.94 170.835 236.692 171.09C236.514 171.274 236.415 171.366 236.399 171.349C236.383 171.332 236.739 170.9 237.214 170.128C237.829 169.126 238.284 168.016 238.558 166.845C238.82 165.67 238.9 164.455 238.793 163.251C238.704 162.329 238.552 161.764 238.599 161.753Z" fill="#455A64"/>
<path d="M254.413 163.262C253.838 163.462 253.348 163.888 253.039 164.46C252.73 165.031 252.622 165.708 252.736 166.361C252.849 167.015 253.177 167.599 253.657 168.004C254.136 168.408 254.734 168.605 255.336 168.555C255.938 168.506 256.503 168.214 256.922 167.736C257.342 167.258 257.588 166.626 257.613 165.961C257.638 165.297 257.44 164.645 257.057 164.13C256.675 163.615 256.134 163.274 255.537 163.17" fill="#EBEBEB"/>
<path d="M261.478 151.944C260.816 152.172 260.254 152.661 259.898 153.316C259.541 153.972 259.416 154.749 259.546 155.5C259.676 156.251 260.051 156.923 260.601 157.389C261.151 157.854 261.838 158.081 262.529 158.025C263.221 157.969 263.87 157.636 264.353 157.087C264.836 156.539 265.119 155.814 265.149 155.05C265.178 154.287 264.952 153.538 264.514 152.946C264.075 152.354 263.454 151.96 262.769 151.84" fill="#EBEBEB"/>
<path d="M276.568 102.062C271.864 101.624 267.06 102.788 263.815 106.601C262.202 108.53 261 110.83 260.295 113.335C259.59 115.839 259.399 118.486 259.738 121.081C254.71 123.385 251.971 130.436 253.921 136.057C255.87 141.679 262.194 144.87 267.327 142.871C268.488 146.112 270.395 148.963 272.86 151.144C275.325 153.324 278.264 154.759 281.386 155.307C284.507 155.855 287.705 155.496 290.663 154.267C293.621 153.038 296.237 150.98 298.253 148.297C303.182 149.524 308.706 149.449 312.888 146.247C317.069 143.044 318.909 136.029 315.752 131.674C321.433 130.148 324.319 122.331 322.636 116.157C320.953 109.982 315.904 105.558 310.52 103.053C306.961 101.394 302.518 100.53 299.481 103.162C298.26 101.091 296.607 99.3719 294.66 98.1477C292.713 96.9235 290.529 96.2299 288.289 96.1245C286.05 96.0191 283.82 96.505 281.786 97.5418C279.751 98.5786 277.971 100.136 276.594 102.085" fill="#F5F5F5"/>
<path d="M276.568 102.062C276.568 102.062 276.662 101.924 276.855 101.659C277.142 101.27 277.447 100.899 277.77 100.547C279.031 99.1793 280.513 98.0834 282.139 97.3155C283.318 96.753 284.559 96.3656 285.829 96.1635C287.351 95.9301 288.897 95.9827 290.403 96.319C292.145 96.7055 293.807 97.4436 295.305 98.4963C296.997 99.6858 298.442 101.256 299.544 103.104H299.408C300.699 102.032 302.266 101.439 303.882 101.411C305.596 101.376 307.302 101.677 308.921 102.298C310.641 102.94 312.296 103.776 313.86 104.792C315.521 105.848 317.057 107.127 318.433 108.599C319.89 110.142 321.088 111.955 321.972 113.956C322.411 115 322.747 116.093 322.975 117.216C323.183 118.369 323.255 119.546 323.19 120.718C323.059 123.14 322.354 125.482 321.146 127.509C320.516 128.538 319.732 129.44 318.825 130.176C317.902 130.928 316.857 131.479 315.747 131.801L315.815 131.576C316.5 132.541 316.981 133.663 317.221 134.859C317.458 136.075 317.486 137.33 317.304 138.557C316.918 141.079 315.821 143.403 314.168 145.198C312.432 146.982 310.278 148.195 307.949 148.7C305.59 149.231 303.166 149.311 300.783 148.937C299.91 148.816 299.048 148.626 298.201 148.43L298.337 148.378C296.796 150.444 294.895 152.149 292.747 153.393C290.598 154.637 288.246 155.395 285.828 155.622C283.409 155.849 280.975 155.541 278.666 154.715C276.358 153.889 274.223 152.563 272.387 150.814C270.099 148.684 268.316 145.971 267.191 142.912L267.348 142.987C265.903 143.499 264.376 143.674 262.866 143.501C261.356 143.327 259.896 142.809 258.578 141.979C257.324 141.233 256.225 140.208 255.349 138.97C254.474 137.731 253.842 136.306 253.492 134.784C252.902 131.921 253.274 128.919 254.537 126.334C255.655 123.949 257.482 122.058 259.712 120.978L259.66 121.087C259.361 118.805 259.471 116.48 259.984 114.244C260.638 111.352 261.951 108.691 263.799 106.514C264.335 105.898 264.921 105.337 265.55 104.838C266.648 103.968 267.863 103.293 269.151 102.839C271.553 102.025 274.08 101.757 276.578 102.05C276.578 102.05 276.411 102.05 276.087 102.05C275.763 102.05 275.282 102.01 274.644 102.01C272.787 102.011 270.94 102.331 269.172 102.96C267.896 103.418 266.693 104.095 265.608 104.965C264.987 105.46 264.41 106.017 263.883 106.629C263.32 107.3 262.806 108.018 262.346 108.778C261.33 110.468 260.58 112.336 260.13 114.302C259.632 116.515 259.529 118.813 259.827 121.07V121.145L259.759 121.179C257.575 122.249 255.789 124.109 254.694 126.45C253.45 128.983 253.079 131.927 253.649 134.738C254.006 136.229 254.641 137.622 255.514 138.827C256.387 140.032 257.478 141.023 258.719 141.737C260.009 142.546 261.437 143.052 262.914 143.22C264.39 143.389 265.883 143.217 267.296 142.716L267.405 142.676L267.453 142.796C268.597 145.873 270.407 148.593 272.726 150.72C275.045 152.847 277.802 154.315 280.754 154.996C283.943 155.649 287.231 155.361 290.286 154.164C293.341 152.966 296.056 150.901 298.154 148.176L298.206 148.107H298.285C299.126 148.303 299.978 148.493 300.846 148.608C303.196 148.977 305.586 148.899 307.912 148.378C310.194 147.888 312.305 146.703 314.006 144.956C315.615 143.205 316.681 140.94 317.054 138.482C317.252 137.309 317.228 136.102 316.982 134.939C316.737 133.776 316.275 132.682 315.627 131.726L315.501 131.553L315.7 131.495C316.776 131.18 317.79 130.647 318.69 129.923C319.561 129.192 320.314 128.304 320.916 127.296C322.103 125.311 322.795 123.017 322.923 120.644C322.994 119.487 322.925 118.325 322.719 117.188C322.498 116.086 322.168 115.014 321.737 113.991C320.868 112.014 319.69 110.222 318.256 108.697C316.895 107.237 315.374 105.97 313.729 104.924C312.183 103.912 310.545 103.078 308.843 102.436C307.247 101.822 305.567 101.522 303.877 101.549C302.3 101.57 300.77 102.143 299.508 103.185L299.429 103.254L299.372 103.162C297.295 99.6966 294.057 97.2795 290.366 96.44C288.877 96.1 287.347 96.0396 285.84 96.2614C282.82 96.7337 280.01 98.234 277.801 100.553C277.378 101.013 277.064 101.382 276.871 101.641C276.678 101.9 276.568 102.062 276.568 102.062Z" fill="#263238"/>
<path d="M308.897 120.016C308.897 120.263 299.624 120.465 288.194 120.465C276.763 120.465 267.496 120.263 267.496 120.016C267.496 119.768 276.763 119.566 288.194 119.566C299.624 119.566 308.897 119.768 308.897 120.016Z" fill="#455A64"/>
<path d="M308.897 124.992C308.897 125.24 299.624 125.441 288.194 125.441C276.763 125.441 267.496 125.24 267.496 124.992C267.496 124.744 276.763 124.537 288.194 124.537C299.624 124.537 308.897 124.716 308.897 124.992Z" fill="#455A64"/>
<path d="M308.897 129.917C308.897 130.165 299.624 130.366 288.194 130.366C276.763 130.366 267.496 130.165 267.496 129.917C267.496 129.669 276.763 129.468 288.194 129.468C299.624 129.468 308.897 129.669 308.897 129.917Z" fill="#455A64"/>
<path d="M308.897 134.865C308.897 135.113 299.624 135.315 288.194 135.315C276.763 135.315 267.496 135.113 267.496 134.865C267.496 134.618 276.763 134.416 288.194 134.416C299.624 134.416 308.897 134.618 308.897 134.865Z" fill="#455A64"/>
</svg>
