<svg width="41" height="40" viewBox="0 0 41 40" fill="none" xmlns="http://www.w3.org/2000/svg">
<mask id="mask0_530_2718" style="mask-type:alpha" maskUnits="userSpaceOnUse" x="0" y="0" width="41" height="40">
<rect x="0.5" width="40" height="40" fill="#D9D9D9"/>
</mask>
<g mask="url(#mask0_530_2718)">
<path d="M15.5 35C12.7222 35 10.3611 34.0278 8.41667 32.0833C6.47222 30.1389 5.5 27.7778 5.5 25V15C5.5 12.2222 6.47222 9.86111 8.41667 7.91667C10.3611 5.97222 12.7222 5 15.5 5H25.5C28.2778 5 30.6389 5.97222 32.5833 7.91667C34.5278 9.86111 35.5 12.2222 35.5 15V25C35.5 27.7778 34.5278 30.1389 32.5833 32.0833C30.6389 34.0278 28.2778 35 25.5 35H15.5ZM18.8333 26.6667L28.8333 16.6667L26.5 14.3333L18.8333 22L15.1667 18.3333L12.8333 20.6667L18.8333 26.6667Z" fill="#407BFF"/>
</g>
</svg>
